<svg xmlns="http://www.w3.org/2000/svg" version="1.1" xmlns:xlink="http://www.w3.org/1999/xlink" xmlns:svgjs="http://svgjs.dev/svgjs" width="1440" height="560" preserveAspectRatio="none" viewBox="0 0 1440 560"><g mask="url(&quot;#SvgjsMask1008&quot;)" fill="none"><path d="M1208.03-24.04C1019.79-1.98 905.84 416.78 592.04 417.9 278.24 419.02 138.07 218.84-23.95 216.3" stroke="rgba(255, 235, 216, 0.58)" stroke-width="2"></path><path d="M679.82-67.35C518.72-32.53 454.72 384.98 204.07 389.09-46.58 393.2-147.71 250.53-271.68 249.09" stroke="rgba(255, 235, 216, 0.58)" stroke-width="2"></path><path d="M985.3-97.67C863.28-61.24 932.88 270.1 649.57 285.39 366.25 300.68 149.57 424.65-21.9 425.39" stroke="rgba(255, 235, 216, 0.58)" stroke-width="2"></path><path d="M1030.7-1.86C842.3 14.65 713.31 402.32 391.39 402.59 69.48 402.86-76.17 155.08-247.91 150.59" stroke="rgba(255, 235, 216, 0.58)" stroke-width="2"></path><path d="M708.09-78.91C586.62-71.14 517.9 147.51 282.53 157.63 47.15 167.75-28.7 322.63-143.04 325.63" stroke="rgba(255, 235, 216, 0.58)" stroke-width="2"></path></g><defs><mask id="SvgjsMask1008"><rect width="1440" height="560" fill="#ffffff"></rect></mask></defs></svg>